<svg xmlns="http://www.w3.org/2000/svg" xmlns:xlink="http://www.w3.org/1999/xlink" width="1200" zoomAndPan="magnify" viewBox="0 0 900 225" height="300" preserveAspectRatio="xMidYMid meet" version="1.0"><defs><g/></defs><rect x="-90" width="1080" fill="#ffffff" y="-22.5" height="270" fill-opacity="1"/><rect x="-90" width="1080" fill="#ffffff" y="-22.5" height="270" fill-opacity="1"/><rect x="-90" width="1080" fill="#ffffff" y="-22.5" height="270" fill-opacity="1"/><g fill="#545454" fill-opacity="1"><g transform="translate(54.921752, 133.962818)"><g><path d="M 37.679688 -44.714844 C 37.558594 -45.019531 37.433594 -45.386719 37.3125 -45.632812 C 36.332031 -48.8125 33.398438 -51.074219 30.035156 -51.074219 C 28.503906 -51.074219 27.035156 -50.648438 25.8125 -49.789062 C 25.445312 -49.609375 25.140625 -49.363281 24.894531 -49.179688 C 23.976562 -48.382812 23.058594 -46.917969 22.203125 -44.714844 L 5.136719 -2.324219 C 4.953125 -1.773438 4.894531 -1.222656 5.015625 -0.855469 C 5.078125 -0.488281 5.382812 0.0625 6.363281 0.0625 L 13.089844 0.0625 C 13.886719 0.0625 14.496094 -0.429688 14.800781 -1.222656 L 18.289062 -9.96875 L 31.683594 -9.96875 C 32.359375 -9.96875 32.96875 -10.277344 33.277344 -10.828125 C 33.640625 -11.316406 33.703125 -11.988281 33.519531 -12.601562 L 31.316406 -18.042969 C 31.011719 -18.777344 30.339844 -19.269531 29.542969 -19.269531 L 21.960938 -19.269531 L 29.789062 -39.085938 C 29.851562 -39.207031 29.910156 -39.269531 29.910156 -39.269531 L 30.15625 -39.269531 C 30.15625 -39.269531 30.15625 -39.269531 30.21875 -39.148438 L 45.386719 -1.285156 C 45.691406 -0.429688 46.304688 0.0625 47.160156 0.0625 L 53.707031 0.0625 C 54.683594 0.0625 54.929688 -0.550781 55.050781 -0.855469 C 55.171875 -1.222656 55.113281 -1.773438 54.867188 -2.324219 Z M 37.679688 -44.714844 "/></g></g></g><g fill="#545454" fill-opacity="1"><g transform="translate(118.047686, 133.962818)"><g><path d="M 46.609375 -35.785156 C 46.609375 -35.722656 46.609375 -35.660156 46.609375 -35.601562 C 46.609375 -35.539062 46.609375 -35.476562 46.609375 -35.417969 Z M 47.773438 -2.628906 L 37.066406 -20.980469 C 40.066406 -21.347656 42.390625 -22.632812 43.917969 -24.710938 C 45.632812 -27.21875 46.550781 -30.828125 46.609375 -35.601562 C 46.550781 -40.371094 45.632812 -43.980469 43.917969 -46.488281 C 42.082031 -49.117188 39.023438 -50.402344 34.867188 -50.402344 L 6.667969 -50.402344 C 6.117188 -50.402344 4.894531 -50.21875 4.894531 -48.261719 L 4.894531 -43.429688 C 4.894531 -41.535156 6.117188 -41.351562 6.667969 -41.351562 L 33.277344 -41.351562 C 34.867188 -41.351562 35.90625 -40.921875 36.515625 -40.003906 C 37.191406 -39.085938 37.496094 -37.617188 37.496094 -35.601562 C 37.496094 -33.582031 37.191406 -32.113281 36.515625 -31.195312 C 35.90625 -30.277344 34.867188 -29.851562 33.277344 -29.851562 L 6.667969 -29.851562 C 6.117188 -29.851562 4.894531 -29.667969 4.894531 -27.769531 L 4.894531 -2.078125 C 4.894531 -0.183594 6.117188 0.0625 6.667969 0.0625 L 12.234375 0.0625 C 12.785156 0.0625 13.945312 -0.183594 13.945312 -2.078125 L 13.945312 -20.796875 L 26.851562 -20.796875 L 37.925781 -1.164062 C 38.167969 -0.796875 38.351562 -0.488281 38.597656 -0.304688 C 38.902344 -0.0625 39.332031 0.0625 39.882812 0.0625 L 46.609375 0.0625 C 47.34375 0.0625 47.894531 -0.429688 48.015625 -1.164062 C 48.078125 -1.773438 48.015625 -2.261719 47.773438 -2.628906 Z M 47.773438 -2.628906 "/></g></g></g><g fill="#545454" fill-opacity="1"><g transform="translate(174.078063, 133.962818)"><g><path d="M 47.160156 -50.402344 L 6.667969 -50.402344 C 6.117188 -50.402344 4.894531 -50.21875 4.894531 -48.324219 L 4.894531 -43.550781 C 4.894531 -41.535156 6.117188 -41.351562 6.667969 -41.351562 L 22.386719 -41.351562 L 22.386719 -2.078125 C 22.386719 -0.183594 23.609375 0 24.101562 0 L 29.726562 0 C 30.277344 0 31.441406 -0.183594 31.441406 -2.078125 L 31.441406 -41.351562 L 47.160156 -41.351562 C 47.710938 -41.351562 48.933594 -41.535156 48.933594 -43.550781 L 48.933594 -48.324219 C 48.933594 -50.21875 47.710938 -50.402344 47.160156 -50.402344 Z M 47.160156 -50.402344 "/></g></g></g><g fill="#545454" fill-opacity="1"><g transform="translate(230.964825, 133.962818)"><g><path d="M 34.4375 -30.09375 L 16.085938 -30.09375 C 15.167969 -30.09375 14.007812 -30.460938 14.007812 -33.460938 L 14.007812 -37.984375 C 14.007812 -39.085938 14.191406 -39.941406 14.496094 -40.554688 C 14.742188 -40.921875 15.109375 -41.351562 16.148438 -41.351562 L 41.042969 -41.351562 C 41.535156 -41.351562 42.757812 -41.535156 42.757812 -43.429688 L 42.757812 -48.324219 C 42.757812 -50.21875 41.535156 -50.402344 41.042969 -50.402344 L 14.679688 -50.402344 C 11.316406 -50.402344 8.871094 -49.300781 7.277344 -47.039062 C 5.6875 -44.835938 4.894531 -41.898438 4.894531 -38.351562 L 4.894531 -33.703125 C 4.894531 -29.484375 5.75 -26.058594 7.277344 -23.917969 C 9.175781 -21.410156 11.988281 -21.042969 14.558594 -21.042969 L 32.910156 -21.042969 C 33.824219 -21.042969 35.050781 -20.675781 35.050781 -17.675781 L 35.050781 -12.417969 C 35.050781 -11.316406 34.867188 -10.460938 34.5 -9.847656 C 34.253906 -9.480469 33.886719 -9.054688 32.847656 -9.054688 L 6.726562 -9.054688 C 6.179688 -9.054688 4.953125 -8.871094 4.953125 -6.972656 L 4.953125 -2.078125 C 4.953125 -0.183594 6.179688 0 6.726562 0 L 34.316406 0 C 37.679688 0 40.1875 -1.164062 41.777344 -3.425781 C 43.308594 -5.628906 44.101562 -8.503906 44.101562 -12.050781 L 44.101562 -17.433594 C 44.101562 -21.410156 43.308594 -24.527344 41.714844 -26.730469 C 40.066406 -28.933594 37.617188 -30.09375 34.4375 -30.09375 Z M 34.4375 -30.09375 "/></g></g></g><g fill="#545454" fill-opacity="1"><g transform="translate(283.019246, 133.962818)"><g><path d="M 47.160156 -50.402344 L 6.667969 -50.402344 C 6.117188 -50.402344 4.894531 -50.21875 4.894531 -48.324219 L 4.894531 -43.550781 C 4.894531 -41.535156 6.117188 -41.351562 6.667969 -41.351562 L 22.386719 -41.351562 L 22.386719 -2.078125 C 22.386719 -0.183594 23.609375 0 24.101562 0 L 29.726562 0 C 30.277344 0 31.441406 -0.183594 31.441406 -2.078125 L 31.441406 -41.351562 L 47.160156 -41.351562 C 47.710938 -41.351562 48.933594 -41.535156 48.933594 -43.550781 L 48.933594 -48.324219 C 48.933594 -50.21875 47.710938 -50.402344 47.160156 -50.402344 Z M 47.160156 -50.402344 "/></g></g></g><g fill="#545454" fill-opacity="1"><g transform="translate(339.906007, 133.962818)"><g><path d="M 44.40625 -50.402344 L 38.78125 -50.402344 C 38.292969 -50.402344 37.128906 -50.15625 37.128906 -48.261719 L 37.128906 -29.972656 L 13.945312 -29.972656 L 13.945312 -48.261719 C 13.945312 -50.15625 12.785156 -50.402344 12.234375 -50.402344 L 6.667969 -50.402344 C 6.117188 -50.402344 4.894531 -50.15625 4.894531 -48.261719 L 4.894531 -2.078125 C 4.894531 -0.183594 6.117188 0.0625 6.667969 0.0625 L 12.234375 0.0625 C 12.785156 0.0625 13.945312 -0.183594 13.945312 -2.078125 L 13.945312 -20.917969 L 37.128906 -20.917969 L 37.128906 -2.078125 C 37.128906 -0.183594 38.292969 0.0625 38.78125 0.0625 L 44.40625 0.0625 C 44.957031 0.0625 46.183594 -0.183594 46.183594 -2.078125 L 46.183594 -48.261719 C 46.183594 -50.15625 44.957031 -50.402344 44.40625 -50.402344 Z M 44.40625 -50.402344 "/></g></g></g><g fill="#545454" fill-opacity="1"><g transform="translate(394.040176, 133.962818)"><g><path d="M 41.65625 -10.949219 L 20.125 -10.949219 C 18.839844 -10.949219 17.800781 -11.132812 16.945312 -11.378906 C 16.148438 -11.683594 15.597656 -12.109375 15.109375 -12.722656 C 14.621094 -13.394531 14.253906 -14.3125 14.070312 -15.476562 C 14.007812 -15.78125 14.007812 -16.210938 13.945312 -16.515625 C 13.945312 -16.515625 14.007812 -20.917969 14.070312 -20.917969 L 41.410156 -20.917969 C 41.898438 -20.917969 43.125 -21.164062 43.125 -23.058594 L 43.125 -27.894531 C 43.125 -29.789062 41.898438 -29.972656 41.410156 -29.972656 L 9.847656 -29.910156 C 8.074219 -29.789062 6.546875 -28.871094 5.6875 -27.34375 C 5.382812 -26.851562 5.136719 -26.363281 5.015625 -25.8125 L 4.894531 -18.105469 L 4.894531 -17.800781 C 4.953125 -14.925781 5.261719 -12.476562 5.6875 -10.460938 C 6.238281 -8.011719 7.15625 -5.996094 8.320312 -4.464844 C 9.542969 -2.875 11.132812 -1.773438 13.089844 -1.101562 C 14.984375 -0.367188 17.25 -0.0625 19.941406 -0.0625 L 41.65625 -0.0625 C 42.207031 -0.0625 43.429688 -0.246094 43.429688 -2.140625 L 43.429688 -8.871094 C 43.429688 -10.765625 42.207031 -10.949219 41.65625 -10.949219 Z M 41.714844 -50.523438 L 6.546875 -50.523438 C 6.054688 -50.523438 4.894531 -50.28125 4.894531 -48.324219 L 4.894531 -43.550781 C 4.894531 -41.65625 6.054688 -41.472656 6.546875 -41.472656 L 41.714844 -41.410156 C 42.207031 -41.410156 43.429688 -41.65625 43.429688 -43.550781 L 43.429688 -48.382812 C 43.429688 -50.28125 42.207031 -50.523438 41.714844 -50.523438 Z M 41.714844 -50.523438 "/></g></g></g><g fill="#545454" fill-opacity="1"><g transform="translate(445.42175, 133.962818)"><g><path d="M 47.160156 -50.402344 L 6.667969 -50.402344 C 6.117188 -50.402344 4.894531 -50.21875 4.894531 -48.324219 L 4.894531 -43.550781 C 4.894531 -41.535156 6.117188 -41.351562 6.667969 -41.351562 L 22.386719 -41.351562 L 22.386719 -2.078125 C 22.386719 -0.183594 23.609375 0 24.101562 0 L 29.726562 0 C 30.277344 0 31.441406 -0.183594 31.441406 -2.078125 L 31.441406 -41.351562 L 47.160156 -41.351562 C 47.710938 -41.351562 48.933594 -41.535156 48.933594 -43.550781 L 48.933594 -48.324219 C 48.933594 -50.21875 47.710938 -50.402344 47.160156 -50.402344 Z M 47.160156 -50.402344 "/></g></g></g><g fill="#545454" fill-opacity="1"><g transform="translate(502.308512, 133.962818)"><g><path d="M 12.234375 -50.402344 L 6.605469 -50.402344 C 6.117188 -50.402344 4.894531 -50.15625 4.894531 -48.261719 L 4.894531 -2.078125 C 4.894531 -0.183594 6.117188 0.0625 6.605469 0.0625 L 12.234375 0.0625 C 12.722656 0.0625 13.945312 -0.183594 13.945312 -2.078125 L 13.945312 -48.261719 C 13.945312 -50.15625 12.722656 -50.402344 12.234375 -50.402344 Z M 12.234375 -50.402344 "/></g></g></g><g fill="#545454" fill-opacity="1"><g transform="translate(524.206864, 133.962818)"><g><path d="M 42.265625 -50.402344 L 20.003906 -50.402344 C 17.3125 -50.402344 14.984375 -50.035156 13.089844 -49.363281 C 11.132812 -48.628906 9.542969 -47.464844 8.378906 -45.9375 C 7.15625 -44.40625 6.238281 -42.390625 5.6875 -39.941406 C 5.136719 -37.558594 4.894531 -34.621094 4.894531 -31.257812 L 4.894531 -19.144531 C 4.894531 -15.71875 5.136719 -12.785156 5.6875 -10.335938 C 6.238281 -7.953125 7.15625 -5.933594 8.378906 -4.34375 C 9.601562 -2.8125 11.195312 -1.652344 13.089844 -0.980469 C 14.984375 -0.304688 17.3125 0.0625 20.003906 0.0625 L 42.265625 0.0625 C 42.757812 0.0625 43.980469 -0.183594 43.980469 -2.078125 L 43.980469 -6.910156 C 43.980469 -8.808594 42.757812 -9.054688 42.265625 -9.054688 L 20.308594 -9.054688 C 19.023438 -9.054688 17.921875 -9.175781 17.128906 -9.480469 C 16.332031 -9.726562 15.78125 -10.152344 15.292969 -10.828125 C 14.800781 -11.4375 14.496094 -12.355469 14.253906 -13.519531 C 14.070312 -14.742188 13.945312 -16.269531 13.945312 -18.105469 L 13.945312 -32.359375 C 13.945312 -34.191406 14.070312 -35.722656 14.253906 -36.882812 C 14.496094 -38.046875 14.800781 -38.902344 15.292969 -39.574219 C 15.78125 -40.25 16.332031 -40.675781 17.128906 -40.921875 C 17.921875 -41.226562 19.023438 -41.351562 20.308594 -41.351562 L 42.265625 -41.351562 C 42.757812 -41.351562 43.980469 -41.59375 43.980469 -43.550781 L 43.980469 -48.261719 C 43.980469 -50.15625 42.757812 -50.402344 42.265625 -50.402344 Z M 42.265625 -50.402344 "/></g></g></g><path fill="#545454" d="M 619.082031 54.316406 L 736.605469 54.316406 C 744.398438 54.316406 751.871094 57.378906 757.382812 62.835938 C 762.890625 68.292969 765.988281 75.691406 765.988281 83.40625 L 765.988281 141.59375 C 765.988281 149.308594 762.890625 156.707031 757.382812 162.164062 C 751.871094 167.621094 744.398438 170.683594 736.605469 170.683594 L 619.082031 170.683594 C 602.855469 170.683594 589.703125 157.660156 589.703125 141.59375 L 589.703125 83.40625 C 589.703125 67.339844 602.855469 54.316406 619.082031 54.316406 " fill-opacity="1" fill-rule="nonzero"/><g fill="#ffffff" fill-opacity="1"><g transform="translate(613.363082, 134.969185)"><g><path d="M 56.527344 -67.078125 C 56.34375 -67.539062 56.160156 -68.089844 55.976562 -68.457031 C 54.507812 -73.226562 50.101562 -76.621094 45.054688 -76.621094 C 42.761719 -76.621094 40.558594 -75.980469 38.722656 -74.695312 C 38.175781 -74.421875 37.714844 -74.054688 37.347656 -73.777344 C 35.972656 -72.585938 34.59375 -70.382812 33.308594 -67.078125 L 7.707031 -3.488281 C 7.433594 -2.660156 7.339844 -1.835938 7.523438 -1.285156 C 7.617188 -0.734375 8.074219 0.0898438 9.542969 0.0898438 L 19.636719 0.0898438 C 20.832031 0.0898438 21.75 -0.640625 22.207031 -1.835938 L 27.4375 -14.957031 L 47.535156 -14.957031 C 48.542969 -14.957031 49.460938 -15.417969 49.917969 -16.242188 C 50.46875 -16.976562 50.5625 -17.984375 50.285156 -18.902344 L 46.984375 -27.070312 C 46.523438 -28.171875 45.515625 -28.90625 44.320312 -28.90625 L 32.941406 -28.90625 L 44.6875 -58.636719 C 44.78125 -58.820312 44.871094 -58.914062 44.871094 -58.914062 L 45.238281 -58.914062 C 45.238281 -58.914062 45.238281 -58.914062 45.332031 -58.730469 L 68.089844 -1.925781 C 68.546875 -0.640625 69.464844 0.0898438 70.75 0.0898438 L 80.570312 0.0898438 C 82.039062 0.0898438 82.402344 -0.824219 82.585938 -1.285156 C 82.769531 -1.835938 82.679688 -2.660156 82.3125 -3.488281 Z M 56.527344 -67.078125 "/></g></g></g><g fill="#ffffff" fill-opacity="1"><g transform="translate(708.048496, 134.969185)"><g><path d="M 18.351562 -75.613281 L 9.910156 -75.613281 C 9.175781 -75.613281 7.339844 -75.246094 7.339844 -72.402344 L 7.339844 -3.121094 C 7.339844 -0.273438 9.175781 0.0898438 9.910156 0.0898438 L 18.351562 0.0898438 C 19.085938 0.0898438 20.921875 -0.273438 20.921875 -3.121094 L 20.921875 -72.402344 C 20.921875 -75.246094 19.085938 -75.613281 18.351562 -75.613281 Z M 18.351562 -75.613281 "/></g></g></g></svg>